<?xml version="1.0" standalone="no"?><!DOCTYPE svg PUBLIC "-//W3C//DTD SVG 1.1//EN" "http://www.w3.org/Graphics/SVG/1.1/DTD/svg11.dtd"><svg class="icon" width="60px" height="60.00px" viewBox="0 0 1024 1024" version="1.1" xmlns="http://www.w3.org/2000/svg"><path fill="" d="M699.04725 764.206732c0 0 8.433763 28.641418 26.351337 30.120214 37.704182 3.109067 135.522993-64.001605 143.055614-161.879465 7.527486-97.87786-45.175187-154.349411-94.114117-188.230801C778.103827 146.819357 533.409177 11.291229 514.580192 0 499.52522 7.530054 251.061692 143.05048 254.83057 444.219248c-48.941497 33.88139-101.644171 90.352941-94.114117 188.230801 7.530054 97.87786 105.38224 165.383905 143.05048 161.879465 20.559383-1.91268 26.351337-30.120214 26.351337-30.120214l11.298931-52.702673c0 0 56.466416 82.825455 71.523956 82.825455l101.639036 0 101.646738 0c18.82385 0 71.523956-82.825455 71.523956-82.825455L699.04725 764.206732zM607.700743 756.866663l-92.28616 0L423.123288 756.866663c-13.478616 0-89.297758-120.709352-89.297758-120.709352s-29.578502 102.255201-43.401144 105.318056c-26.38728 5.845868-85.387676-30.762053-90.671293-111.125414C190.64925 491.879635 293.145783 458.991812 293.145783 458.991812c0-311.124973 208.263876-413.244104 221.750194-419.983412 16.849554 10.107678 221.072412 123.215091 221.072412 416.065628 43.809354 30.32817 96.019095 76.360854 96.019095 180.497927 0 44.245804-54.97735 103.931684-88.720103 101.056246-14.687841-1.252869-53.388157-101.852126-53.388157-101.852126S624.550297 756.866663 607.700743 756.866663z"  /><path d="M435.526183 824.442026c-11.291229 0-22.585026 11.291229-22.585026 22.590161l0 109.166522c0 11.291229 11.293797 22.590161 22.585026 22.590161 11.296364 0 22.590161-11.296364 22.590161-22.590161l0-109.166522C458.116343 835.733256 446.822547 824.442026 435.526183 824.442026z"  /><path d="M518.346503 821.890075c-11.01909 0-22.048449 11.026792-22.048449 22.048449l0 158.015595c0 11.021657 11.029359 22.045881 22.048449 22.045881 11.021657 0 22.045881-11.024224 22.045881-22.045881l0-158.015595C540.392384 832.916867 529.36816 821.890075 518.346503 821.890075z"  /><path d="M593.639337 828.203202c-11.296364 0-22.587593 11.296364-22.587593 22.590161l0 79.056577c0 11.291229 11.288662 22.590161 22.587593 22.590161 11.291229 0 22.585026-11.296364 22.585026-22.590161l0-79.056577C616.224363 839.499566 604.933133 828.203202 593.639337 828.203202z"  /><path d="M514.585327 230.127475c-63.434219 0-114.850647 51.418995-114.850647 114.84808 0 63.431652 51.416428 114.84808 114.850647 114.84808 63.426517 0 114.845512-51.418995 114.845512-114.84808C629.433407 281.546471 578.014411 230.127475 514.585327 230.127475zM514.585327 424.188741c-43.750305 0-79.213186-35.465449-79.213186-79.213186s35.462881-79.213186 79.213186-79.213186c43.74517 0 79.210618 35.462881 79.210618 79.213186S558.333064 424.188741 514.585327 424.188741z"  /></svg>
