<?xml version="1.0" standalone="no"?><!DOCTYPE svg PUBLIC "-//W3C//DTD SVG 1.1//EN" "http://www.w3.org/Graphics/SVG/1.1/DTD/svg11.dtd"><svg t="1501830138883" class="icon" style="" viewBox="0 0 1024 1024" version="1.1" xmlns="http://www.w3.org/2000/svg" p-id="2715" xmlns:xlink="http://www.w3.org/1999/xlink" width="200" height="200"><defs><style type="text/css"></style></defs><path d="M810.193984 106.9795c-9.993608-6.468318-22.543436-7.371898-33.402761-2.51017L365.303428 290.069445l-76.824713-39.482223 21.721721-13.053294L634.956891 83.844593c17.469883-8.233522 24.960485-29.129434 16.696264-46.654576-8.312316-17.444301-29.218462-24.935925-46.669926-16.660448L211.025693 207.011774c-12.252045 5.783727-20.050662 18.11559-20.050662 31.620162l0 661.664671c0 13.582343 7.842619 25.969465 20.113083 31.697933l147.374512 69.216431c4.722558 2.213411 9.82374 3.310396 14.898315 3.310396 4.78498 0 9.606799-1.019213 14.09502-2.932796l417.821037-183.506431c12.721743-5.548366 20.953218-18.135032 20.953218-32.055067L826.230216 136.422066C826.230216 124.521015 820.197826 113.446795 810.193984 106.9795z" p-id="2716" fill="#ffc701"></path></svg>