<svg xmlns="http://www.w3.org/2000/svg" width="248" height="187" viewBox="0 0 248 187" preserveAspectRatio="xMidYMid meet" style="width: 100%; height: 100%;"><defs><clipPath id="animationMask_PAkEISGeH9"><rect width="248" height="187" x="0" y="0"></rect></clipPath></defs><g clip-path="url(#animationMask_PAkEISGeH9)"><g transform="matrix(1,0,0,1,63.75,34.75)" opacity="1" style="user-select: none;"><g opacity="1" transform="matrix(1,0,0,1,60.25,60.25)"><path fill="rgb(213,214,231)" fill-opacity="1" d="M0 0 M0,60 C33.137,60 60,33.137 60,0 C60,-33.137 33.137,-60 0,-60 C-13.946,-60 -26.78,-55.242000000000004 -36.969,-47.261 C-39.11,-45.584 -42.286,-49.714 -44,-50.571 C-45.714,-51.428999999999995 -42.857,-43.714000000000006 -49.034,-34.587 C-55.942,-24.811000000000003 -60,-12.88 -60,0 C-60,33.137 -33.137,60 0,60z"></path></g></g><g transform="matrix(1,0,0,1,63.751000000000005,34.75)" opacity="1" style="user-select: none;"><g opacity="1" transform="matrix(1,0,0,1,54.535,57.536)"><path fill="rgb(225,225,238)" fill-opacity="1" d="M0 0 M54.286,-7 C54.286,-21.399 49.549,-34.692 41.553,-45.409 C31.552,-52.867999999999995 19.15,-57.286 5.715,-57.286 C-8.231,-57.286 -21.066,-52.528 -31.255,-44.547 C-33.396,-42.87 -36.572,-47 -38.286,-47.857 C-40.001000000000005,-48.714 -37.144,-41 -43.321,-31.872 C-50.227999999999994,-22.097 -54.286,-10.165 -54.286,2.714 C-54.286,26.119999999999997 -40.875,46.38 -21.327,56.27 C-17.648000000000003,56.925000000000004 -13.867999999999999,57.286 -10.001,57.286 C25.503,57.286 54.286,28.503999999999998 54.286,-7z"></path></g></g><g transform="matrix(1,0,0,1,63.751000000000005,34.943999999999996)" opacity="1" style="user-select: none;"><g opacity="1" transform="matrix(1,0,0,1,44.535,52.439)"><path fill="rgb(232,233,245)" fill-opacity="1" d="M0 0 M10.948,-52.189 C-1.1479999999999997,-51.238 -12.238999999999999,-46.707 -21.255,-39.644 C-23.396,-37.967 -26.572000000000003,-42.097 -28.286,-42.954 C-30.001,-43.811 -27.142999999999997,-36.097 -33.321,-26.969 C-40.227999999999994,-17.194000000000003 -44.286,-5.263000000000001 -44.286,7.617 C-44.286,23.827 -37.846,38.525999999999996 -27.4,49.323 C-21.936,51.171 -16.089,52.189 -10.001,52.189 C19.981,52.189 44.286,27.884 44.286,-2.097 C44.286,-24.653000000000002 30.528,-43.991 10.948,-52.189z"></path></g></g><g transform="matrix(1,0,0,1,63.75,41.49700000000001)" opacity="1" style="user-select: none;"><g opacity="1" transform="matrix(1,0,0,1,34.536,44.162)"><path fill="rgb(240,240,248)" fill-opacity="1" d="M0 0 M-1.929,-43.912 C-5.227,-42.196999999999996 -8.350999999999999,-40.195 -11.254,-37.921 C-13.395999999999999,-36.243 -16.572000000000003,-40.373000000000005 -18.286,-41.231 C-20,-42.088 -17.143,-34.373 -23.32,-25.246 C-30.228,-15.470999999999998 -34.286,-3.5390000000000015 -34.286,9.341 C-34.286,21.083 -30.900000000000002,32.028 -25.071,41.278 C-20.366,42.98 -15.292,43.912 -10,43.912 C14.457999999999998,43.912 34.286,24.084999999999997 34.286,-0.373 C34.286,-22.074 18.673000000000002,-40.116 -1.929,-43.912z"></path></g></g><g transform="matrix(1,0,0,1,63.75,50.76500000000001)" opacity="1" style="user-select: none;"><g opacity="1" transform="matrix(1,0,0,1,24.536,34.528)"><path fill="rgb(248,248,251)" fill-opacity="1" d="M0 0 M-9.448,-34.279 C-9.933,-31.611000000000004 -10.972000000000001,-28.348 -13.32,-24.878 C-20.228,-15.103 -24.286,-3.1720000000000006 -24.286,9.708 C-24.286,17.929000000000002 -22.628999999999998,25.761000000000003 -19.636,32.896 C-16.578,33.79 -13.347,34.279 -10,34.279 C8.934999999999999,34.279 24.286,18.927999999999997 24.286,-0.007 C24.286,-18.758000000000003 9.232,-33.983000000000004 -9.448,-34.279z"></path></g></g><g transform="matrix(1,0,0,0.9221016666654032,79.803,102.86847458333365)" opacity="1" style="user-select: none;"><g opacity="1" transform="matrix(1,0,0,1,21.25,8.822)"><path fill="rgb(196,196,217)" fill-opacity="1" d="M0 0 M21,-8.572 C11.571,-6.286 6.429,8.572 -9,8.572 C-21,8.572 -7.286,-1.142999999999999 -11,-8.572 C-11,-8.572 21,-8.572 21,-8.572z"></path></g></g><g transform="matrix(1,0,0,1,63.565999999999995,34.699)" opacity="1" style="user-select: none;"><g opacity="1" transform="matrix(1,0,0,1,60.153,37.965)"><path fill="rgb(196,196,217)" fill-opacity="1" d="M0 0 M0.097,-37.715 C-13.849,-37.715 -26.683,-32.956 -36.872,-24.975 C-38.408,-23.771 -40.478,-25.56 -42.158,-26.982 C-42.158,-26.982 -43.403,-27.495 -43.403,-27.495 C-43.403,-27.495 -44.57,-27.098 -44.57,-27.098 C-44.723,-24.634999999999998 -44.519,-18.83 -48.937,-12.301 C-55.845,-2.526 -59.903,9.406 -59.903,22.286 C-59.903,22.286 -59.499,29.285 -59.499,29.285 C-49.436,23.692 -36.632,24.828 -33.617,30.857 C-33.617,30.857 -1.617,30.857 -1.617,30.857 C7.811000000000001,28.572 11.073,37.715 23.526,37.715 C43.906,37.715 52.992,27.357 59.903,17.423 C57.427,-13.440000000000001 31.597,-37.715 0.097,-37.715z"></path></g></g><g transform="matrix(1,0,0,1,132.035,71.036)" opacity="1" style="user-select: none;"><g opacity="1" transform="matrix(1,0,0,1,11.679,11.678)"><path fill="rgb(255,255,255)" fill-opacity="1" d="M0 0 M0,11.428 C6.312,11.428 11.429,6.311 11.429,-0.001 C11.429,-6.312 6.312,-11.428 0,-11.428 C-6.312,-11.428 -11.429,-6.312 -11.429,-0.001 C-11.429,6.311 -6.312,11.428 0,11.428z"></path></g></g><g transform="matrix(1,0,0,0.9794574999943143,139.893,76.87253601253391)" opacity="1" style="user-select: none;"><g opacity="1" transform="matrix(1,0,0,1,5.964,5.965)"><path fill="rgb(171,171,194)" fill-opacity="1" d="M0 0 M0,-5.715 C3.156,-5.715 5.714,-3.157 5.714,-0.001 C5.714,3.1550000000000002 3.156,5.715 0,5.715 C-3.156,5.715 -5.714,3.1550000000000002 -5.714,-0.001 C-5.714,-3.157 -3.156,-5.715 0,-5.715z"></path></g></g><g transform="matrix(0.9898988461403093,0.14177543655402464,-0.14177543655402464,0.9898988461403093,72.95279027839835,33.8702229335134)" opacity="1" style="user-select: none;"><g opacity="1" transform="matrix(1,0,0,1,8.952,5.591)"><path fill="rgb(196,196,217)" fill-opacity="1" d="M0 0 M-0.161,5.232 C-0.161,5.232 -0.161,5.232 -0.161,5.232 C1.3599999999999999,5.3420000000000005 3.5810000000000004,5.228 5.32,4.011 C8.253,1.956 8.702,-2.465 8.702,-2.465 C8.702,-2.465 4.396,-3.5540000000000003 1.462,-1.499 C0.7959999999999999,-1.0330000000000001 0.257,-0.444 -0.177,0.187 C-0.369,-0.554 -0.6729999999999998,-1.2919999999999998 -1.14,-1.958 C-3.194,-4.892 -7.614,-5.342 -7.614,-5.342 C-7.614,-5.342 -8.703,-1.0330000000000001 -6.649,1.901 C-5.431,3.6390000000000002 -3.383,4.505 -1.916,4.923 C-1.916,4.923 -1.916,4.923 -1.916,4.923 C-1.916,4.923 -0.161,5.232 -0.161,5.232z"></path></g></g></g></svg>