<?xml version="1.0" standalone="no"?><!DOCTYPE svg PUBLIC "-//W3C//DTD SVG 1.1//EN" "http://www.w3.org/Graphics/SVG/1.1/DTD/svg11.dtd"><svg class="icon" width="48px" height="48.00px" viewBox="0 0 1024 1024" version="1.1" xmlns="http://www.w3.org/2000/svg"><path d="M292.280271 322.980412 534.541851 322.980412 534.541851 354.640315 292.280271 354.640315 292.280271 322.980412 292.280271 322.980412ZM292.280271 468.995886 534.541851 468.995886 534.541851 500.65579 292.280271 500.65579 292.280271 468.995886 292.280271 468.995886ZM292.280271 614.979701 731.751389 614.979701 731.751389 646.639604 292.280271 646.639604 292.280271 614.979701 292.280271 614.979701ZM292.280271 760.995175 731.751389 760.995175 731.751389 792.655079 292.280271 792.655079 292.280271 760.995175 292.280271 760.995175ZM904.804421 284.038731C904.709442 283.373873 904.582802 282.772335 904.392843 282.107477 903.696325 279.448045 902.524908 276.883593 900.561994 274.889019L635.568603 9.800648C633.574029 7.806074 631.041237 6.666317 628.350145 5.969799 627.685287 5.77984 627.115409 5.6532 626.387231 5.558221 625.754033 5.526561 625.089175 5.209962 624.392657 5.209962L233.58281 5.209962C170.294663 5.209962 118.784 56.688965 118.784 119.977111L118.784 903.55972C118.784 966.847867 170.294663 1018.32687 233.58281 1018.32687L790.44885 1018.32687C853.736997 1018.32687 905.216 966.847867 905.216 903.55972L905.216 286.128284C905.216 285.400107 904.899401 284.735249 904.804421 284.038731L904.804421 284.038731ZM839.173442 270.17017 717.510308 270.17017C673.87191 270.17017 638.370504 234.668765 638.370504 191.060503L638.370504 69.306959 839.173442 270.17017 839.173442 270.17017ZM780.587681 969.847643 243.443979 969.847643C199.224064 969.847643 163.280114 933.873154 163.280114 889.683778L163.280114 133.853053C163.249575 89.663677 199.224064 53.689189 243.443979 53.689189L605.143337 53.689189 605.143337 198.655995C605.143337 259.702686 654.829663 309.358474 715.876355 309.358474L860.751546 309.358474 860.751546 889.653239C860.751546 933.873154 824.777056 969.847643 780.587681 969.847643L780.587681 969.847643Z" fill="#828382" /></svg>