<?xml version="1.0" standalone="no"?><!DOCTYPE svg PUBLIC "-//W3C//DTD SVG 1.1//EN" "http://www.w3.org/Graphics/SVG/1.1/DTD/svg11.dtd"><svg class="icon" width="128px" height="128.00px" viewBox="0 0 1024 1024" version="1.1" xmlns="http://www.w3.org/2000/svg"><path d="M526.7599 47.4245c-247.2335 0-447.6641 200.4296-447.6641 447.6641 0 247.2335 200.4296 447.6641 447.6641 447.6641 247.2346 0 447.6641-200.4285 447.6641-447.6641C974.423 247.8541 773.9945 47.4245 526.7599 47.4245zM449.7183 706.8518c-2.687 3.0362-6.5638 5.0094-10.9353 5.1702-4.3715 0.1618-8.3835-1.5176-11.2876-4.3479L286.0063 569.812c-2.8252-2.7525-4.5957-6.5853-4.6397-10.8411-0.044-4.2547 1.6456-8.1254 4.4134-10.9353l41.2447-41.897c2.775-2.818 6.6304-4.5711 10.8984-4.5844 4.268-0.0133 8.1347 1.7142 10.9261 4.5158l78.2715 78.5244c2.9256 2.9358 7.0236 4.6817 11.4913 4.5036s8.4132-2.2456 11.095-5.4047l254.505-299.6951c2.686-3.1621 6.6355-5.2306 11.1084-5.4057 4.4718-0.1741 8.5719 1.579 11.4964 4.522l41.6051 41.8734c2.6552 2.6726 4.3397 6.3191 4.4575 10.3823 0.1178 4.0622-1.3527 7.8008-3.8502 10.623L449.7183 706.8518z" fill="#bfbfbf" /></svg>
