<?xml version="1.0" standalone="no"?><!DOCTYPE svg PUBLIC "-//W3C//DTD SVG 1.1//EN" "http://www.w3.org/Graphics/SVG/1.1/DTD/svg11.dtd"><svg class="icon" width="128px" height="128.00px" viewBox="0 0 1024 1024" version="1.1" xmlns="http://www.w3.org/2000/svg"><path d="M507.857 73.783c-244.284 0-442.313 198.029-442.313 442.31 0 244.28 198.03 442.31 442.313 442.31 244.28 0 442.309-198.031 442.309-442.31 0-244.282-198.028-442.31-442.309-442.31z m201.636 416.863a74.266 74.266 0 0 1-21.089-3.045l-88.739 116.733a19.09 19.09 0 0 1-28.251 2.374l-67.638-63.41L401.907 682.21a19.085 19.085 0 0 1-27.533 3.443l-135.443-111.63c-8.136-6.705-9.294-18.736-2.59-26.87 6.704-8.137 18.734-9.296 26.87-2.59l119.855 98.781 102.661-139.989a19.086 19.086 0 0 1 28.448-2.638l67.906 63.663 73.605-96.826c-12.66-13.316-20.43-31.323-20.43-51.145 0-40.998 33.236-74.235 74.236-74.235 40.997 0 74.235 33.237 74.235 74.235s-33.238 74.237-74.234 74.237z" fill="#6597f1" /></svg>