<?xml version="1.0" standalone="no"?><!DOCTYPE svg PUBLIC "-//W3C//DTD SVG 1.1//EN" "http://www.w3.org/Graphics/SVG/1.1/DTD/svg11.dtd"><svg t="1501332784264" class="icon" style="" viewBox="0 0 1024 1024" version="1.1" xmlns="http://www.w3.org/2000/svg" p-id="825" xmlns:xlink="http://www.w3.org/1999/xlink" width="200" height="200"><defs><style type="text/css"></style></defs><path d="M590.624 950.481v-261.76h-156.92v262.021h-7.169c-75.027 0-150.054 0.014-225.081-0.008-26.163-0.008-42.731-18.607-42.733-47.9-0.002-106.427 0.047-212.855-0.107-319.282-0.01-6.082 1.72-9.945 5.908-13.788 114.58-105.085 229.054-210.323 343.55-315.526 1.243-1.14 2.556-2.18 4.156-3.54 16.806 15.435 33.502 30.747 50.177 46.086C661.723 388.136 761.02 479.51 860.41 570.757c3.503 3.216 4.992 6.453 4.988 11.519-0.11 107.568-0.036 215.134-0.111 322.702-0.019 26.257-17.041 45.644-40.45 45.697-76.663 0.172-153.325 0.066-229.987 0.055-1.192 0-2.386-0.135-4.226-0.249z" fill="#828382" p-id="826"></path><path d="M511.97 190.317c-38.127 35.441-75.794 70.457-113.464 105.468C295.984 391.063 193.467 486.35 90.923 581.599c-12.757 11.847-23.113 10.808-33.798-3.239-11.236-14.77-22.445-29.566-33.556-44.453-9.033-12.105-8.037-24.68 2.718-34.67 146.19-135.803 292.377-271.611 438.617-407.346 27.331-25.37 67.37-24.792 95.408 1.213 37.397 34.684 74.69 69.508 112.033 104.264 11.58 10.777 23.179 21.526 36 33.432v-8.517c0-40.573-0.011-49.643 0-90.215 0.005-17.322 6.864-24.944 22.456-24.952 36.803-0.015 73.607-0.008 110.41-0.015 17.612-0.001 24.102 7.155 24.103 26.676 0.007 88.665 0.064 145.83-0.132 234.496-0.015 6.12 1.76 9.976 5.863 13.756 42.245 38.876 84.356 77.932 126.506 116.937 10.804 9.998 11.996 22.402 2.994 34.564-11.577 15.643-23.262 31.188-35.097 46.585-9.183 11.946-20.214 12.846-31.132 2.699-93.098-86.52-186.168-173.075-279.245-259.622-46.46-43.202-92.916-86.41-139.378-129.611-1.08-1.004-2.21-1.943-3.723-3.264z" fill="#828382" p-id="827"></path></svg>