<?xml version="1.0" standalone="no"?><!DOCTYPE svg PUBLIC "-//W3C//DTD SVG 1.1//EN" "http://www.w3.org/Graphics/SVG/1.1/DTD/svg11.dtd"><svg class="icon" width="200px" height="200.00px" viewBox="0 0 1024 1024" version="1.1" xmlns="http://www.w3.org/2000/svg"><path fill="#6bc456" d="M646.093 578.3c-36.787 21.177-79.258 33.465-124.762 33.465-48.211 0-93.1-13.843-131.309-37.382C214.4 627.529 86.394 792.188 86.394 987.337c0 2.284 0.288 4.53 0.345 6.796H937.3c0.02-2.284 0.346-4.53 0.346-6.796C937.606 796.7 815.322 635.285 646.093 578.3zM521.331 72.533c-138.605 0-250.963 112.34-250.963 250.925 0 90.336 47.962 169.306 119.635 213.562 38.227 23.52 83.117 37.382 131.309 37.382 45.504 0 87.974-12.288 124.762-33.465 75.283-43.277 126.144-124.378 126.144-217.46 0.019-138.604-112.34-250.944-250.887-250.944z"  /></svg>
