<?xml version="1.0" standalone="no"?><!DOCTYPE svg PUBLIC "-//W3C//DTD SVG 1.1//EN" "http://www.w3.org/Graphics/SVG/1.1/DTD/svg11.dtd"><svg class="icon" width="200px" height="200.00px" viewBox="0 0 1024 1024" version="1.1" xmlns="http://www.w3.org/2000/svg"><path d="M423.5264 926.53568H184.4224a74.42432 74.42432 0 0 1-74.36288-74.3424V143.872a74.46528 74.46528 0 0 1 74.36288-74.38336h603.136a74.4448 74.4448 0 0 1 74.3424 74.38336v236.60544a20.48 20.48 0 1 1-40.96 0V143.872c0-18.432-14.97088-33.42336-33.3824-33.42336H184.4224c-18.41152 0-33.40288 14.99136-33.40288 33.42336v708.32128c0 18.39104 14.97088 33.3824 33.40288 33.3824H423.5264a20.48 20.48 0 1 1 0 40.96z" fill="#080103" /><path d="M468.76672 259.85024H237.93664a20.48 20.48 0 0 1 0-40.96h230.83008a20.48 20.48 0 0 1 0 40.96zM704.512 393.3184H239.80032a20.48 20.48 0 0 1 0-40.96H704.512a20.48 20.48 0 1 1 0 40.96zM353.36192 545.83296h-113.5616a20.48 20.48 0 1 1 0-40.96h113.5616a20.48 20.48 0 0 1 0 40.96z" fill="#090204" /><path d="M700.84608 773.59104h-29.63456a139.10016 139.10016 0 0 1-138.9568-138.93632v-145.87904a15.36 15.36 0 0 1 15.36-15.36h276.84864a15.36 15.36 0 0 1 15.36 15.36v145.87904a139.14112 139.14112 0 0 1-138.97728 138.93632z m-137.89184-269.45536v130.51904a108.3392 108.3392 0 0 0 108.2368 108.21632h29.63456a108.3392 108.3392 0 0 0 108.2368-108.21632v-130.51904H562.95424z" fill="#040000" /><path d="M667.21792 767.63136h30.12608v118.51776h-30.12608z" fill="#040000" /><path d="M579.87072 875.80672h204.8v30.26944h-204.8zM542.8224 672.68608c-41.84064 0-75.8784-38.85056-75.8784-86.60992 0-47.49312 24.9856-75.85792 66.82624-75.85792v30.72c-15.50336 0-36.10624 4.68992-36.10624 45.13792 0 30.8224 20.25472 55.88992 45.1584 55.88992v30.72zM829.07136 671.744v-30.72c24.92416 0 45.19936-25.088 45.19936-55.88992 0-40.448-20.62336-45.11744-36.12672-45.11744v-30.72c41.86112 0 66.84672 28.3648 66.84672 75.83744 0 47.73888-34.05824 86.60992-75.91936 86.60992zM655.4624 553.14432h41.39008v16.81408h-41.39008z" fill="#040000" /><path d="M686.01856 553.14432h20.02944v134.81984h-20.02944z" fill="#040000" /></svg>