<?xml version="1.0" standalone="no"?><!DOCTYPE svg PUBLIC "-//W3C//DTD SVG 1.1//EN" "http://www.w3.org/Graphics/SVG/1.1/DTD/svg11.dtd"><svg t="1501832153004" class="icon" style="" viewBox="0 0 1024 1024" version="1.1" xmlns="http://www.w3.org/2000/svg" p-id="4647" xmlns:xlink="http://www.w3.org/1999/xlink" width="200" height="200"><defs><style type="text/css"></style></defs><path d="M470.341846 352.482718c-21.650077-8.270816-42.692006-15.082076-62.760898-20.433781-5.351704 19.947262-9.852001 41.35408-13.379261 63.977194 13.379261-8.514075 25.542226-15.933484 37.583561-22.988003 11.798076-6.81126 24.325929-13.379261 38.556598-20.55541zM417.31132 724.06129c11.798076 34.056301 26.272004 62.274379 42.083858 81.856753 16.906521 20.920299 34.664449 31.502079 52.544007 31.502078 35.029338 0 70.180306-42.205488 94.627866-113.358831-30.89393-8.149186-62.639268-19.217484-94.627866-32.961634-31.866968 13.74415-63.612305 24.812448-94.627865 32.961634zM431.785248 650.961872c-12.041335-6.93289-24.2043-14.352298-37.583561-22.988003 3.52726 22.501485 7.905927 43.908303 13.379261 63.977194 20.068892-5.351704 40.989191-12.162965 62.760898-20.433781-14.352298-7.176149-26.758522-13.86578-38.556598-20.55541zM606.68868 299.93871c-24.447559-71.153344-59.598527-113.358831-94.627865-113.358831-18.001188 0-35.637487 10.581779-52.544008 31.502078-15.811854 19.582373-30.285782 47.800451-42.083858 81.856753 31.01556 8.270816 62.882528 19.339114 94.627866 32.961634 31.866968-13.74415 63.612305-24.812448 94.627865-32.961634zM592.214752 373.038128c12.162965 7.05452 24.325929 14.473928 37.583561 22.988003-3.52726-22.501485-8.027557-43.908303-13.379261-63.977194-19.947262 5.230075-40.989191 12.162965-62.760898 20.433781 14.595558 7.297779 27.123411 13.987409 38.556598 20.55541zM275.491151 536.751633C222.338995 594.404086 200.688918 645.731797 217.473809 674.679653c11.919705 20.55541 43.300154 31.988597 88.424754 31.988597 20.190521 0 43.178525-2.554223 68.477491-7.419408-7.905927-29.677634-13.86578-62.03112-17.636299-96.209051-30.042523-21.163559-57.287564-43.421784-81.248604-66.288158zM299.81708 512.060815c15.933484 15.325336 33.813042 30.529041 53.152156 45.489488-0.973037-16.055113-1.337926-31.01556-1.337926-45.489488 0-14.473928 0.486519-29.556004 1.337926-45.489488-19.339114 14.960447-37.097042 30.164153-53.152156 45.489488zM217.473809 349.320347c-16.784891 29.069486 4.865186 80.397197 58.017342 137.92802 23.839411-22.744744 51.206081-45.002969 81.248604-66.288158 3.770519-34.177931 9.730372-66.531417 17.636299-96.209051-25.298967-4.865186-48.4086-7.419408-68.477491-7.419408-45.124599 0-76.505048 11.311557-88.424754 31.988597zM575.429861 402.229243c-19.704003-11.433187-40.989191-22.258225-63.369046-32.475115-22.014966 9.973631-43.300154 20.920299-63.369046 32.475115-20.433781 11.919705-40.502673 24.569189-59.963416 38.07008-2.310963 24.447559-3.40563 48.530229-3.405631 71.639862s1.094667 47.192303 3.405631 71.639862c19.582373 13.62252 39.772895 26.393633 59.963416 38.07008 19.704003 11.311557 40.989191 22.258225 63.369046 32.475116 22.136596-10.095261 43.421784-21.041929 63.369046-32.475116 20.433781-11.798076 40.502673-24.569189 59.963416-38.07008 2.310963-24.569189 3.40563-48.651859 3.40563-71.639862 0-23.352892-1.094667-47.435562-3.40563-71.639862-20.433781-13.987409-40.016154-26.515263-59.963416-38.07008z m-63.369046 170.768025c-33.691412 0-61.058083-27.366671-61.058083-61.058083 0-33.691412 27.366671-61.058083 61.058083-61.058083 33.691412 0 61.058083 27.366671 61.058083 61.058083 0 33.691412-27.4883 61.058083-61.058083 61.058083zM718.223067 317.33175c-20.190521 0-43.178525 2.432593-68.477492 7.419408 7.905927 29.677634 13.74415 62.03112 17.636299 96.209051 30.164153 21.285188 57.409193 43.543414 81.248605 66.288158 53.030526-57.530823 74.802233-108.858534 58.017341-137.92802-11.919705-20.67704-43.300154-31.988597-88.424753-31.988597z" p-id="4648" fill="#5eb5ff"></path><path d="M512.060815 9.973631C234.745219 9.973631 9.973631 234.745219 9.973631 511.939185S234.745219 1014.026369 512.060815 1014.026369 1014.026369 789.254781 1014.026369 512.060815 789.254781 9.973631 512.060815 9.973631z m325.359306 600.972087c11.189928 31.623708 10.581779 59.476897-1.581185 80.640456-18.487706 31.988597-59.112009 48.895118-117.615869 48.895118-22.988003 0-49.260007-2.919112-78.329493-8.757334-30.042523 88.789642-76.383418 139.509205-127.832759 139.509205S414.148949 820.391971 384.106426 731.602328c-28.826226 5.838223-55.21986 8.757335-78.329493 8.757335-58.50386 0-99.249792-16.906521-117.615869-48.895119-12.162965-21.163559-12.771113-49.016748-1.702815-80.640456 10.946668-30.89393 33.083264-65.071861 64.220454-99.006532-31.13719-33.934672-53.395415-68.112602-64.220454-99.006533-11.189928-31.623708-10.581779-59.476897 1.702815-80.640456 18.487706-31.988597 59.112009-48.895118 117.615869-48.895119 22.866374 0 49.138377 2.919112 78.329493 8.757335 30.042523-88.789642 76.505048-139.509205 127.832759-139.509205s97.790236 50.719563 127.832759 139.509205c28.826226-5.838223 55.09823-8.757335 78.329493-8.757335 58.50386 0 99.128162 16.906521 117.615869 48.773489 12.162965 21.163559 12.771113 49.016748 1.581186 80.640456-10.946668 30.89393-33.083264 65.071861-64.220454 99.006533 31.258819 34.177931 53.517045 68.355862 64.342083 99.249792z" p-id="4649" fill="#5eb5ff"></path><path d="M724.18292 511.939185c-15.933484-15.203706-33.691412-30.529041-53.152156-45.489488 0.973037 16.176743 1.337926 31.13719 1.337926 45.489488 0 14.352298-0.486519 29.434375-1.337926 45.489488 19.339114-14.960447 37.218672-30.164153 53.152156-45.489488zM512.060815 484.694144c-15.082076 0-27.245041 12.284594-27.245041 27.366671s12.284594 27.245041 27.245041 27.245041c15.082076 0 27.245041-12.284594 27.245041-27.245041 0-15.082076-12.162965-27.366671-27.245041-27.366671zM667.381874 603.039791c-3.770519 34.177931-9.730372 66.531417-17.636299 96.209051 25.298967 4.865186 48.28697 7.419408 68.477492 7.419408 45.124599 0 76.505048-11.311557 88.424753-31.988597 16.784891-29.069486-4.986816-80.397197-58.017341-137.92802-23.717781 22.623114-51.084452 44.88134-81.248605 66.288158zM553.779784 671.517282c21.771707 8.270816 42.813636 15.203706 62.760898 20.433781 5.351704-20.068892 9.852001-41.597339 13.379261-63.977194-13.500891 8.635705-25.542226 16.055113-37.583561 22.988003-11.919705 6.81126-24.325929 13.500891-38.556598 20.55541z" p-id="4650" fill="#5eb5ff"></path></svg>