<?xml version="1.0" standalone="no"?><!DOCTYPE svg PUBLIC "-//W3C//DTD SVG 1.1//EN" "http://www.w3.org/Graphics/SVG/1.1/DTD/svg11.dtd"><svg class="icon" width="128px" height="128.00px" viewBox="0 0 1024 1024" version="1.1" xmlns="http://www.w3.org/2000/svg"><path d="M598.986 338c0 19.222 15.568 34.806 34.78 34.806h69.594l-104.374-104.422V338z" fill="#87a1ba" /><path d="M564.184 338s-0.804-27.938-0.49-69.616h-208.26c-19.216 0-34.792 15.586-34.792 34.808v417.702c0 19.222 15.576 34.804 34.792 34.804h313.136c19.21 0 34.792-15.582 34.792-34.804v-313.28h-69.594c-38.428 0.002-69.584-31.162-69.584-69.614z m52.192 313.278h-208.76c-9.606 0-17.39-7.794-17.39-17.404 0-9.614 7.784-17.406 17.39-17.406h208.76c9.608 0 17.388 7.792 17.388 17.406 0.002 9.608-7.78 17.404-17.388 17.404z m0-104.424h-208.76c-9.606 0-17.39-7.792-17.39-17.412 0-9.604 7.784-17.398 17.39-17.398h208.76c9.608 0 17.388 7.794 17.388 17.398 0.002 9.618-7.78 17.412-17.388 17.412z" fill="#87a1ba" /><path d="M512 0C229.23 0 0 229.23 0 512s229.23 512 512 512 512-229.23 512-512S794.77 0 512 0z m226.152 407.616v313.28c0 38.452-31.156 69.62-69.584 69.62H355.432c-38.428 0-69.584-31.168-69.584-69.62V303.194c0-38.448 31.156-69.616 69.584-69.616h208.75c23.292-0.366 32.56 0.498 34.802 0.498v-0.498l139.166 139.23 0.002 34.808z" fill="#87a1ba" /></svg>