<?xml version="1.0" standalone="no"?><!DOCTYPE svg PUBLIC "-//W3C//DTD SVG 1.1//EN" "http://www.w3.org/Graphics/SVG/1.1/DTD/svg11.dtd"><svg class="icon" width="48px" height="48.00px" viewBox="0 0 1024 1024" version="1.1" xmlns="http://www.w3.org/2000/svg"><path d="M541.2 235.3c-5.2-5.2-10.9-7.6-16.6-9-3.8-1.9-8.3-2.6-12.8-2.6s-9 0.7-12.8 2.6c-5.7 1.2-11.6 3.8-16.6 9l-314.1 314c-14.1 14.1-14.1 35.9 0 50 14.1 14.1 35.9 14.1 50 0l261.4-261.4v558.8c0 18 14.1 32 32 32 18 0 32-14.1 32-32V337.9l261.4 261.4c14.1 14.1 35.9 14.1 50 0 14.1-14.1 14.1-35.9 0-50l-313.9-314zM896.3 95.6h-769c-18 0-32 14.1-32 32 0 18 14.1 32 32 32h768.9c18 0 32-14.1 32-32 0.1-17.8-14.1-32-31.9-32z" fill="#ffffff" /></svg>