<?xml version="1.0" standalone="no"?><!DOCTYPE svg PUBLIC "-//W3C//DTD SVG 1.1//EN" "http://www.w3.org/Graphics/SVG/1.1/DTD/svg11.dtd"><svg class="icon" width="128px" height="128.00px" viewBox="0 0 1024 1024" version="1.1" xmlns="http://www.w3.org/2000/svg"><path d="M512 51.198056c-254.482949 0-460.780455 206.297506-460.780455 460.780455s206.297506 460.780455 460.780455 460.780455 460.780455-206.297506 460.780455-460.780455S766.482949 51.198056 512 51.198056zM512 767.967766c-28.27702 0-51.198056-22.921036-51.198056-51.198056s22.921036-51.198056 51.198056-51.198056c28.27702 0 51.198056 22.921036 51.198056 51.198056S540.27702 767.967766 512 767.967766zM560.807612 563.016931c-1.415232 26.489304-22.833031 47.526433-48.348148 50.291406 1.850138 0.199545 3.493567 1.065262 5.387707 1.065262l-10.652618 0c1.840928 0 3.462868-0.868787 5.26491-1.065262-25.583678-2.749624-46.601364-23.308869-47.838541-50.291406l-11.724019-255.739569c-1.299599-28.364001 20.880563-51.360761 49.169863-51.360761l23.630187 0c28.455075 0 50.326199 22.423709 48.77896 51.360761L560.807612 563.016931z" fill="#bfbfbf" /></svg>
