<?xml version="1.0" standalone="no"?><!DOCTYPE svg PUBLIC "-//W3C//DTD SVG 1.1//EN" "http://www.w3.org/Graphics/SVG/1.1/DTD/svg11.dtd"><svg class="icon" width="128px" height="128.00px" viewBox="0 0 1024 1024" version="1.1" xmlns="http://www.w3.org/2000/svg"><path d="M511.566118 64.839751c-246.708891 0-446.704878 199.995987-446.704878 446.708971 0 246.708891 199.995987 446.708971 446.704878 446.708971 246.712985 0 446.714088-200.005196 446.714088-446.708971C958.279183 264.835737 758.279103 64.839751 511.566118 64.839751M261.127276 761.786996l54.779627-146.083099 87.086428 85.656868-141.866055 60.426231m164.349115-73.054852l-93.433996-96.899934 260.587994-257.085216 89.904612 92.682889-257.05861 261.302261M756.585531 356.611977c-12.19474 13.691837-51.876508 53.712319-51.876508 53.712319l-94.12575-93.768617 46.337351-46.359864s21.089317-19.999496 48.490387 0c27.370371 20.022009 51.175543 46.359864 51.175543 46.359864s12.202926 26.333762-0.001023 40.056298m0 0" fill="#bfbfbf" /></svg>
