<?xml version="1.0" standalone="no"?><!DOCTYPE svg PUBLIC "-//W3C//DTD SVG 1.1//EN" "http://www.w3.org/Graphics/SVG/1.1/DTD/svg11.dtd"><svg class="icon" width="128px" height="128.00px" viewBox="0 0 1024 1024" version="1.1" xmlns="http://www.w3.org/2000/svg"><path d="M512 65.290005c-246.710938 0-446.708971 199.999057-446.708971 446.708971s199.999057 446.708971 446.708971 446.708971S958.708971 758.710938 958.708971 512 758.710938 65.290005 512 65.290005zM680.019715 683.598216c0 25.38925-19.702738 45.627177-45.088918 45.627177l-276.292674 0c-25.38925 0-45.985334-20.237927-45.985334-45.627177l0-306.99186c0-25.387203 20.596084-46.471404 45.985334-46.471404l214.892255 0c8.487302 0 15.350616 7.388271 15.350616 15.860223 0 8.473999-6.863315 15.862269-15.350616 15.862269L358.638123 361.857445c-8.457626 0-15.286148 6.290263-15.286148 14.748912l0 306.99186c0 8.473999 6.827499 15.951297 15.286148 15.951297l276.292674 0c8.470929 0 15.413038-7.477298 15.413038-15.951297L650.343835 438.006775c0-8.473999 6.351662-15.350616 14.838963-15.350616 8.487302 0 14.836917 6.875594 14.836917 15.350616L680.019715 683.598216zM481.434867 483.631906l-92.098581 0c-8.473999 0-15.350616-6.363941-15.350616-14.83794 0-8.472975 6.876618-14.83794 15.350616-14.83794l92.098581 0c8.470929 0 15.347546 6.363941 15.347546 14.83794C496.783437 477.268988 489.905796 483.631906 481.434867 483.631906zM573.530378 545.030277c8.487302 0 15.350616 7.371898 15.350616 15.862269 0 8.487302-6.863315 15.860223-15.350616 15.860223L389.336286 576.75277c-8.473999 0-15.350616-7.371898-15.350616-15.860223 0-8.490372 6.876618-15.862269 15.350616-15.862269L573.530378 545.030277zM708.146309 327.013869 555.6041 479.5571c-2.993171 3.009544-6.92369 4.499477-10.854209 4.499477-3.929496 0-7.856945-1.506307-10.851139-4.499477-6.003737-6.000668-6.003737-15.70161 0-21.702278l152.542208-152.545278c6.002714-6.002714 15.703657-6.002714 21.704324 0C714.150046 311.310212 714.150046 321.011154 708.146309 327.013869z" fill="#1e95cd" /></svg>